# xmcd
#
# Track frame offsets: 
#        150
#        28199
#        61326
#        93673
#        123949
#        165791
#        189810
#        213438
#        230539
#
# Disc length: 3569 seconds
#
# Revision: 0
# Processed by: cddbd v1.5.2PL0 Copyright (c) Steve Scherf et al.
# Submitted via: ExactAudioCopy v0.95a3
#
DISCID=6d0def09
DTITLE=Kiko Moura and Marcos Ottaviano - Project
DYEAR=1900
DGENRE=Blues
TTITLE0=Blues Sus
TTITLE1=Gadd Groove
TTITLE2=Maybe
TTITLE3=Remembering Beck
TTITLE4=Sunrise And Sunset
TTITLE5=Slow Chicken
TTITLE6=Walkway
TTITLE7=Shuffle For King
TTITLE8=Outskirts of Town
EXTD=
EXTT0=
EXTT1=
EXTT2=
EXTT3=
EXTT4=
EXTT5=
EXTT6=
EXTT7=
EXTT8=
PLAYORDER=
